# xmcd
#
# Track frame offsets:
# 150
# 23624
# 44560
# 66342
# 79821
# 103956
# 123865
# 139401
# 163854
# 207027
#
# Disc length: 3202 seconds
#
#
# Revision: 0
# Processed by: cddbd v1.5.2PL0 Copyright (c) Steve Scherf et al.
# Submitted via: FreeRIP 2.951 
#
DISCID=8e0c800a
DTITLE=Twisters - Live at The Harvest
DYEAR=2003
DGENRE=Blues
TTITLE0=Fulla Hot Air
TTITLE1=Jumpin Blues
TTITLE2=Dynamite
TTITLE3=Fattenin Frogs For Snakes
TTITLE4=Stay Away Baby
TTITLE5=Going Away Baby
TTITLE6=Beg Borrow or Steal
TTITLE7=Nine Times Out of Ten
TTITLE8=Mother Blues
TTITLE9=Honey Bee
EXTD=
EXTT0=
EXTT1=
EXTT2=
EXTT3=
EXTT4=
EXTT5=
EXTT6=
EXTT7=
EXTT8=
EXTT9=
PLAYORDER=
